<svg width="448" height="448" viewBox="0 0 448 448" fill="none" xmlns="http://www.w3.org/2000/svg">
<path d="M375 96H153C121.52 96 96 121.52 96 153V375C96 406.48 121.52 432 153 432H375C406.48 432 432 406.48 432 375V153C432 121.52 406.48 96 375 96Z" stroke="black" stroke-width="32" stroke-linejoin="round"/>
<path d="M351.5 96L352 72C351.958 57.1609 346.044 42.9416 335.551 32.4487C325.058 21.9558 310.839 16.0422 296 16H80C63.0416 16.0501 46.792 22.8091 34.8005 34.8005C22.8091 46.792 16.0501 63.0416 16 80V296C16.0422 310.839 21.9558 325.058 32.4487 335.551C42.9416 346.044 57.1609 351.958 72 352H96M264 184V344M344 264H184" stroke="black" stroke-width="32" stroke-linecap="round" stroke-linejoin="round"/>
</svg>
